<?xml version="1.0" encoding="UTF-8"?>
<svg width="400px" height="300px" viewBox="0 0 400 300" version="1.1" xmlns="http://www.w3.org/2000/svg" xmlns:xlink="http://www.w3.org/1999/xlink">
    <title>playgrounds</title>
    <g id="playgrounds" stroke="none" stroke-width="1" fill="none" fill-rule="evenodd">
        <path d="M25.638852,-6.90560205e-16 L374.361148,1.03584031e-15 C383.276335,-6.01853049e-16 386.509198,0.928256112 389.768457,2.67132704 C393.027716,4.41439796 395.585602,6.97228371 397.328673,10.231543 C399.071744,13.4908022 400,16.7236646 400,25.638852 L400,274.361148 C400,283.276335 399.071744,286.509198 397.328673,289.768457 C395.585602,293.027716 393.027716,295.585602 389.768457,297.328673 C386.509198,299.071744 383.276335,300 374.361148,300 L25.638852,300 C16.7236646,300 13.4908022,299.071744 10.231543,297.328673 C6.97228371,295.585602 4.41439796,293.027716 2.67132704,289.768457 C0.928256112,286.509198 2.00617683e-16,283.276335 -3.45280103e-16,274.361148 L6.90560205e-16,25.638852 C-4.01235366e-16,16.7236646 0.928256112,13.4908022 2.67132704,10.231543 C4.41439796,6.97228371 6.97228371,4.41439796 10.231543,2.67132704 C13.4908022,0.928256112 16.7236646,4.01235366e-16 25.638852,-6.90560205e-16 Z" id="Rectangle" fill="#000000"></path>
        <g id="X/Play/4x/Triangle/Color" transform="translate(-12.5, 50)">
            <g id="y---Triangle" transform="translate(250, 0)" fill="#FFCF00">
                <path d="M84.3749988,72.9367267 L77.0833309,77.1465796 C75.7941611,77.8908833 75,79.2664118 75,80.7550174 L75,109.622573 C75,112.599793 76.5883316,115.350857 79.1666832,116.839461 L95.8333428,126.46191 C98.4116805,127.950506 101.588318,127.950504 104.166654,126.461904 L110.937501,122.552761 C111.435722,122.265113 112.072796,122.435817 112.360444,122.934039 C112.451869,123.092392 112.5,123.272021 112.5,123.454871 L112.5,133.678787 C112.5,135.167396 111.705836,136.542926 110.416662,137.287229 L102.083329,142.098468 C100.79416,142.842768 99.2058399,142.842768 97.9166709,142.098468 L89.5833319,137.287226 C88.2941614,136.542925 86.7058391,136.542926 85.4166695,137.287228 L78.1250017,141.497074 C77.1285587,142.072371 76.7871521,143.346518 77.3624488,144.342961 C77.5452996,144.659668 77.8082955,144.922663 78.1250025,145.105514 L95.8333367,155.329415 C98.4116773,156.818019 101.588323,156.818019 104.166663,155.329415 L120.83333,145.706921 C123.411674,144.218314 125,141.467255 125,138.49004 L125,80.7550174 C125,79.2664118 124.205839,77.8908833 122.916669,77.1465796 L115.625001,72.9367267 C114.628559,72.3614294 113.354412,72.7028352 112.779114,73.6992778 C112.596263,74.0159847 112.5,74.3752438 112.5,74.7409456 L112.5,104.811263 C112.5,106.299862 111.705846,107.675386 110.416685,108.419692 L102.083352,113.231 C100.794171,113.975318 99.2058288,113.975318 97.9166484,113.231 L89.583315,108.419692 C88.2941542,107.675386 87.5,106.299862 87.5,104.811263 L87.5,74.7409456 C87.5,73.5903524 86.5672599,72.6576123 85.4166667,72.6576123 C85.0509648,72.6576123 84.6917058,72.7538756 84.3749988,72.9367267 Z" id="y---Triangle---R_6+2R"></path>
            </g>
            <g id="a---Triangle" transform="translate(187.5, 0)" fill="#FFCF00">
                <path d="M95.8333332,73.5381166 C98.4116756,72.0495099 101.588324,72.0495099 104.166667,73.5381166 L120.833333,83.1606214 C123.411676,84.6492281 125,87.4002865 125,90.3774997 L125,125.259082 C125,125.624783 124.903737,125.984041 124.720887,126.300748 C124.145591,127.297191 122.871445,127.638599 121.875001,127.063303 L113.541665,122.252058 C112.89708,121.879907 112.10292,121.879907 111.458335,122.252058 L104.166665,126.461897 C101.588323,127.950501 98.4116774,127.950499 95.8333371,126.461894 L79.1666661,116.839385 C76.5883241,115.350778 75,112.59972 75,109.622507 L75,90.3774997 C75,87.4002865 76.5883243,84.6492281 79.1666666,83.1606214 Z M102.083333,86.7690569 C100.794162,86.0247535 99.2058378,86.0247536 97.9166666,86.769057 L89.5833331,91.58031 C88.2941621,92.3246133 87.5,93.7001425 87.5,95.188749 L87.5,104.811254 C87.5,106.29986 88.2941622,107.67539 89.5833333,108.419693 L97.9166665,113.230945 C99.2058378,113.975248 100.794162,113.975248 102.083333,113.230945 L110.416667,108.419692 C111.705838,107.675389 112.5,106.299859 112.5,104.811253 L112.5,95.1887482 C112.5,93.7001416 111.705838,92.3246124 110.416667,91.5803091 Z" id="a---Triangle---R_6+1R"></path>
            </g>
            <g id="l---Triangle" transform="translate(143.75, 0)" fill="#FFCF00">
                <path d="M96.8749994,44.0692088 L104.166666,48.2790511 C105.455837,49.0233543 106.25,50.3988839 106.25,51.887491 L106.25,125.259081 C106.25,126.409674 105.31726,127.342414 104.166667,127.342414 C103.800966,127.342414 103.441707,127.246151 103.125001,127.063301 L95.8333348,122.853459 C94.5441628,122.109156 93.75,120.733627 93.75,119.245019 L93.75,45.8734288 C93.75,44.7228355 94.6827401,43.7900954 95.8333333,43.7900954 C96.1990345,43.7900954 96.5582929,43.8863584 96.8749994,44.0692088 Z" id="l---Triangle---R_6"></path>
            </g>
            <g id="p---Triangle" transform="translate(100, 0)" fill="#FFCF00">
                <path d="M95.8333273,73.5381501 C98.4116727,72.0495388 101.588327,72.0495388 104.166673,73.5381501 L120.833339,83.1606731 C123.411678,84.6492807 125,87.4003373 125,90.377548 L125,109.622548 C125,112.599759 123.411678,115.350816 120.833339,116.839423 L104.166669,126.461948 C101.588325,127.950559 98.4116738,127.95056 95.8333293,126.461952 L89.0625,122.552812 C88.9041467,122.461386 88.7245174,122.413255 88.5416667,122.413255 C87.9663701,122.413255 87.5,122.879625 87.5,123.454921 L87.5,154.126626 C87.5,154.492325 87.4037386,154.85158 87.220891,155.168285 C86.6455988,156.16473 85.3714537,156.506143 84.3750081,155.930851 L77.0833496,151.721054 C75.7941693,150.976753 75,149.601218 75,148.112605 L75,90.377548 C75,87.4003373 76.5883217,84.6492807 79.1666606,83.1606731 Z M102.083333,86.7690569 C100.794162,86.0247535 99.2058378,86.0247536 97.9166666,86.769057 L89.5833331,91.58031 C88.2941621,92.3246133 87.5,93.7001425 87.5,95.188749 L87.5,104.811254 C87.5,106.29986 88.2941622,107.67539 89.5833333,108.419693 L97.9166665,113.230945 C99.2058378,113.975248 100.794162,113.975248 102.083333,113.230945 L110.416667,108.419692 C111.705838,107.675389 112.5,106.299859 112.5,104.811253 L112.5,95.1887482 C112.5,93.7001416 111.705838,92.3246124 110.416667,91.5803091 Z" id="p---Triangle---R_6+2R"></path>
            </g>
            <g id="dot" transform="translate(50, 0)" fill="#FFCF00">
                <path d="M102.083333,86.7690569 L110.416667,91.5803091 C111.705838,92.3246124 112.5,93.7001416 112.5,95.1887482 L112.5,104.811253 C112.5,106.299859 111.705838,107.675389 110.416667,108.419692 L102.083333,113.230945 C100.794162,113.975248 99.2058378,113.975248 97.9166665,113.230945 L89.5833333,108.419693 C88.2941622,107.67539 87.5,106.29986 87.5,104.811254 L87.5,95.188749 C87.5,93.7001425 88.2941621,92.3246133 89.5833331,91.58031 L97.9166666,86.769057 C99.2058378,86.0247536 100.794162,86.0247535 102.083333,86.7690569 Z" id="dot---R_6"></path>
            </g>
            <g id="X/Hexagon---R_6">
                <path d="M125,114.433755 L145.833333,126.461885 C148.411676,127.950492 150,130.701551 150,133.678764 L150,152.923773 C150,155.900986 148.411676,158.652045 145.833334,160.140651 L129.166667,169.763157 C126.588324,171.251764 123.411676,171.251764 120.833333,169.763157 L100,157.735027 L100,157.735027 L100,128.867513 L125,114.433755 Z" id="X32" fill="#0087FF"></path>
                <path d="M75,114.433755 L100,128.867512 L100,157.735025 L79.1666668,169.763157 C76.5883244,171.251764 73.4116755,171.251764 70.8333331,169.763157 L54.1666667,160.140653 C51.5883244,158.652046 50,155.900988 50,152.923775 L50,133.678765 C50,130.701552 51.5883242,127.950494 54.1666663,126.461887 L75,114.433755 L75,114.433755 Z" id="X22" fill="#DF001F"></path>
                <path d="M129.166667,30.2368426 L145.833333,39.859347 C148.411676,41.3479536 150,44.0990121 150,47.0762253 L150,66.3212346 C150,69.2984477 148.411676,72.0495061 145.833334,73.5381127 L125,85.5662452 L125,85.5662452 L100,71.1324885 L100,42.264975 L120.833333,30.2368429 C123.411676,28.748236 126.588324,28.7482359 129.166667,30.2368426 Z" id="X31" fill="#0087FF"></path>
                <path d="M79.1666669,30.2368426 L100,42.2649731 L100,42.2649731 L100,71.1324865 L75,85.5662452 L54.1666667,73.5381146 C51.5883244,72.049508 50,69.2984495 50,66.3212362 L50,47.0762269 C50,44.0990138 51.5883242,41.3479555 54.1666663,39.8593488 L70.8333332,30.2368429 C73.4116756,28.748236 76.5883245,28.7482359 79.1666669,30.2368426 Z" id="X21" fill="#DF001F"></path>
                <path d="M100,100.000005 L125,114.433762 L125,138.490023 C125,141.467236 123.411676,144.218294 120.833334,145.706901 L100,157.735034 L100,157.735034 L79.1666667,145.706903 C76.5883244,144.218296 75,141.467238 75,138.490025 L75,114.433763 L75,114.433763 L100,100.000005 Z" id="X12" fill="#FFCF00"></path>
                <path d="M100,42.264976 L120.833333,54.2931066 C123.411676,55.7817132 125,58.5327717 125,61.5099849 L125,85.5662461 L125,85.5662461 L100,100.000005 L75,85.5662481 L75,61.5099865 C75,58.5327734 76.5883242,55.7817151 79.1666663,54.2931084 L100,42.264976 L100,42.264976 Z" id="X11" fill="#FFCF00"></path>
                <path d="M104.166667,73.5381128 L125,85.5662433 L125,85.5662433 L125,114.433757 L104.166667,126.461889 C101.588324,127.950496 98.4116755,127.950496 95.8333331,126.461889 L75,114.433759 L75,114.433759 L75,85.5662452 L95.8333332,73.5381131 C98.4116756,72.0495062 101.588324,72.0495061 104.166667,73.5381128 Z" id="X0-(corner:-60)" fill="#3FBF00"></path>
            </g>
        </g>
    </g>
</svg>